<?xml version="1.0" encoding="UTF-8" standalone="no"?>
<!-- Created with Inkscape (http://www.inkscape.org/) -->

<svg
   width="34.602997mm"
   height="33.64043mm"
   viewBox="0 0 34.602996 33.64043"
   version="1.1"
   id="svg5"
   inkscape:version="1.1.2 (0a00cf5339, 2022-02-04)"
   sodipodi:docname="favicon.svg"
   xmlns:inkscape="http://www.inkscape.org/namespaces/inkscape"
   xmlns:sodipodi="http://sodipodi.sourceforge.net/DTD/sodipodi-0.dtd"
   xmlns="http://www.w3.org/2000/svg"
   xmlns:svg="http://www.w3.org/2000/svg">
  <sodipodi:namedview
     id="namedview7"
     pagecolor="#ffffff"
     bordercolor="#666666"
     borderopacity="1.0"
     inkscape:pageshadow="2"
     inkscape:pageopacity="0.0"
     inkscape:pagecheckerboard="true"
     inkscape:document-units="mm"
     showgrid="false"
     inkscape:snap-bbox="true"
     inkscape:bbox-paths="true"
     inkscape:bbox-nodes="true"
     inkscape:snap-bbox-edge-midpoints="false"
     inkscape:snap-bbox-midpoints="true"
     inkscape:object-nodes="false"
     inkscape:snap-nodes="false"
     inkscape:snap-others="false"
     showborder="false"
     inkscape:zoom="0.96568462"
     inkscape:cx="314.80257"
     inkscape:cy="209.69579"
     inkscape:window-width="1364"
     inkscape:window-height="716"
     inkscape:window-x="0"
     inkscape:window-y="21"
     inkscape:window-maximized="1"
     inkscape:current-layer="layer1" />
  <defs
     id="defs2" />
  <g
     inkscape:label="Livello 1"
     inkscape:groupmode="layer"
     id="layer1"
     transform="translate(69.301489,34.077633)">
    <g
       id="g1044">
      <path
         id="path32620"
         style="font-weight:bold;font-size:14.1111px;line-height:1.25;font-family:'Nimbus Roman';-inkscape-font-specification:'Nimbus Roman,  Bold';letter-spacing:0px;word-spacing:0px;fill:#a51d3d;fill-opacity:1;stroke:#3e0e19;stroke-width:0.796998;stroke-linejoin:round;stroke-miterlimit:4;stroke-dasharray:none;stroke-opacity:1"
         d="m -68.90299,-26.928657 v 0.715651 c 1.766358,0.114439 2.110166,0.514796 2.159245,2.632088 v 12.64701 c -0.04909,2.1172904 -0.270238,2.4031884 -2.159245,2.6320874 v 0.715648 h 8.291724 7.274352 1.336941 v -0.08488 c 1.491761,-0.192929 2.815141,-0.712204 3.924714,-1.506741 1.49859,1.019239 3.357068,1.591611 5.453943,1.591611 3.04677,0 4.848469,-0.953651 7.524341,-3.9774684 l -0.794825,-0.681072 c -1.56315,1.688978 -2.410404,2.3429164 -3.708616,2.8605084 -0.768325,0.326897 -1.642658,0.490371 -2.384493,0.490371 -1.709759,0 -3.343508,-0.912121 -4.133483,-2.2768814 1.143712,-1.646814 1.782858,-3.791431 1.782858,-6.28683 0,-2.524186 -0.637666,-4.622571 -1.822248,-6.197767 0.821125,-1.56585 2.071746,-2.374328 3.722345,-2.374328 1.245232,0 2.357905,0.490426 3.523637,1.525606 1.139233,1.035182 1.774898,1.988834 2.675683,4.031954 h 0.662064 v -6.374843 h -0.715174 c -0.397407,0.980696 -0.635886,1.253174 -1.192232,1.253174 -0.238459,0 -0.609377,-0.108985 -1.192252,-0.3814 -1.51015,-0.653796 -2.807772,-0.953504 -4.079483,-0.953504 -1.956688,0 -3.729096,0.569347 -5.186546,1.567518 -1.4889,-1.019686 -3.402967,-1.567518 -5.672803,-1.567518 h -7.39065 z m 12.347387,0.874917 2.918341,0.0985 c 1.656889,0 2.847141,0.800213 3.708615,2.466536 -1.306891,1.674199 -2.071326,3.856293 -2.071326,6.313026 0,2.537768 0.784255,4.732561 2.148246,6.380084 -0.0438,0.08145 -0.0888,0.159899 -0.13467,0.233664 -0.703694,1.0894064 -1.647568,1.7277054 -2.87347,1.9153864 -0.0516,-0.05775 -0.0996,-0.123969 -0.145659,-0.199073 l -4.931067,-8.1540224 c 1.447421,-0.543629 2.060196,-0.887521 2.747111,-1.631433 0.711436,-0.772526 1.104343,-1.916643 1.104343,-3.204188 0,-1.962014 -0.849124,-3.383584 -2.470574,-4.218466 z m -4.888957,0.0985 c 2.257005,0 3.164679,1.229917 3.164679,4.234182 0,1.83117 -0.368737,2.947016 -1.153783,3.547869 -0.637865,0.486405 -1.471429,0.687039 -3.335927,0.715651 v -7.295869 c 0,-0.171679 0.09759,-0.601607 0.171179,-0.77328 0.147249,-0.28612 0.540456,-0.428553 1.153782,-0.428553 z m -1.325031,9.413483 h 0.662055 l 4.59318,8.0995354 -3.223289,0.121536 c -1.745198,-0.25496 -1.984047,-0.602376 -2.031946,-2.6132244 z" />
      <rect
         style="fill:none;stroke:none;stroke-width:0.96257;stroke-linejoin:round"
         id="rect844"
         width="33.64043"
         height="33.64043"
         x="-68.820206"
         y="-34.077633" />
    </g>
  </g>
</svg>
