<?xml version="1.0" encoding="UTF-8" standalone="no"?>
<!-- Created with Inkscape (http://www.inkscape.org/) -->

<svg
   width="116.23148mm"
   height="21.190475mm"
   viewBox="0 0 116.23148 21.190475"
   version="1.1"
   id="svg5"
   inkscape:version="1.1.2 (0a00cf5339, 2022-02-04)"
   sodipodi:docname="logo.svg"
   xmlns:inkscape="http://www.inkscape.org/namespaces/inkscape"
   xmlns:sodipodi="http://sodipodi.sourceforge.net/DTD/sodipodi-0.dtd"
   xmlns="http://www.w3.org/2000/svg"
   xmlns:svg="http://www.w3.org/2000/svg">
  <sodipodi:namedview
     id="namedview7"
     pagecolor="#ffffff"
     bordercolor="#666666"
     borderopacity="1.0"
     inkscape:pageshadow="2"
     inkscape:pageopacity="0.0"
     inkscape:pagecheckerboard="true"
     inkscape:document-units="mm"
     showgrid="false"
     inkscape:snap-bbox="true"
     inkscape:bbox-paths="true"
     inkscape:bbox-nodes="true"
     inkscape:snap-bbox-edge-midpoints="false"
     inkscape:snap-bbox-midpoints="true"
     inkscape:object-nodes="false"
     inkscape:snap-nodes="false"
     inkscape:snap-others="false"
     showborder="false"
     inkscape:zoom="0.96568462"
     inkscape:cx="238.69076"
     inkscape:cy="69.898597"
     inkscape:window-width="1364"
     inkscape:window-height="716"
     inkscape:window-x="0"
     inkscape:window-y="21"
     inkscape:window-maximized="1"
     inkscape:current-layer="layer1" />
  <defs
     id="defs2" />
  <g
     inkscape:label="Livello 1"
     inkscape:groupmode="layer"
     id="layer1"
     transform="translate(-15.762345,-2.7812223)">
    <g
       id="g103127">
      <path
         id="path44766"
         style="font-weight:bold;font-size:14.1111px;line-height:1.25;font-family:'Nimbus Roman';-inkscape-font-specification:'Nimbus Roman,  Bold';letter-spacing:0px;word-spacing:0px;fill:#ffdab9;fill-opacity:1;stroke:#fa8072;stroke-width:1;stroke-linecap:butt;stroke-linejoin:round;stroke-miterlimit:4;stroke-dasharray:none;stroke-opacity:1;paint-order:normal"
         d="m 60.074219,11.011719 v 2.666015 c 7.466661,0.319975 9.706582,2.027559 9.919922,7.574219 v 51.625 c -0.213317,5.439995 -2.133256,7.040886 -9.919922,7.574219 v 2.666016 h 18.666015 33.707036 c 0.22319,0 0.44426,-0.0031 0.66601,-0.0059 l 1.62695,0.0059 -0.0391,-0.04883 c 6.8323,-0.292187 12.93364,-1.917248 18.0918,-4.667968 5.71921,3.049918 12.59896,4.716797 20.34765,4.716797 h 33.70508 V 80.451171 L 154.5273,79.384765 c -6.27951,0 -11.0729,-2.012204 -14.61523,-6.03711 6.95054,-6.4547 10.93359,-15.786777 10.93359,-27.029297 0,-10.774436 -3.56596,-19.470711 -10.11718,-25.537109 3.44278,-4.140957 7.8997,-6.144531 13.6914,-6.144531 l 32.42578,-0.958985 v -2.666015 h -32.5332 c -8.37307,0 -15.60784,1.527383 -21.51953,4.398437 -5.9115,-2.870729 -13.14695,-4.398437 -21.51953,-4.398437 H 78.740234 Z m 18.666015,3.332031 16.212891,0.480469 c 3.839996,0 6.506385,1.759455 8.373045,5.439453 1.44,2.773334 2.1875,6.66784 2.1875,11.201172 0,5.013329 -1.06677,9.652738 -2.77344,12.052734 -1.81333,2.453333 -4.373177,3.679688 -7.839839,3.679688 l -16.160157,0.533203 z m 25.152346,0.07813 7.27344,0.214844 c 5.79164,0 10.24863,2.003663 13.6914,6.144531 -6.55122,6.066401 -10.11719,14.762665 -10.11719,25.537109 0,11.242293 3.98332,20.57461 10.9336,27.029297 -3.39785,3.860743 -7.94613,5.867924 -13.85352,6.025391 L 88.189453,51.064453 h 7.404297 c 11.51999,0 19.19922,-7.360395 19.19922,-18.400391 0,-8.021427 -3.95177,-15.739641 -10.90039,-18.242187 z M 78.740234,51.697266 102.11914,79.679688 78.740234,80.451172 Z"
         sodipodi:nodetypes="cccccccsccccsccccsccccscscccccscccccccscccsscccccc"
         transform="scale(0.26458333)" />
      <g
         aria-label="Rosanna Di Carlo
Biologo Nutrizionista"
         id="text70251"
         style="font-weight:bold;font-size:9.24232px;line-height:1.3;-inkscape-font-specification:'sans-serif Bold';letter-spacing:0px;word-spacing:0px;fill:#fa8072;fill-opacity:1;stroke:none;stroke-width:0.173293;stroke-opacity:1">
        <path
           d="m 58.665514,8.9366075 c -0.166362,0 -0.286512,-0.046212 -0.378935,-0.1756041 L 56.428872,6.1269422 c 0.545297,-0.1756041 0.776355,-0.2865119 1.03514,-0.5268123 0.268027,-0.2495426 0.415904,-0.6192354 0.415904,-1.0351398 0,-1.0721091 -0.914989,-1.645133 -2.606334,-1.645133 h -2.976027 v 0.231058 c 0.665447,0.036969 0.79484,0.1663618 0.813324,0.8502935 V 8.086314 c -0.01848,0.6839317 -0.101665,0.7763549 -0.813324,0.8502935 v 0.231058 h 3.123904 V 8.9366075 C 54.719043,8.8534266 54.62662,8.7517611 54.608135,8.086314 V 6.2748193 h 0.249543 l 1.91316,2.8928462 h 1.894676 z M 54.608135,3.6222734 c 0,-0.055454 0.03697,-0.1940887 0.0647,-0.2495426 0.05545,-0.092423 0.203331,-0.1386348 0.434389,-0.1386348 0.850294,0 1.19226,0.3974198 1.19226,1.3678634 0,0.5915085 -0.138635,0.9519589 -0.434389,1.1460477 -0.240301,0.1571194 -0.55454,0.2218156 -1.256956,0.231058 z"
           style="font-family:'Nimbus Roman';-inkscape-font-specification:'Nimbus Roman,  Bold';fill:#fa8072;fill-opacity:1;stroke:none;stroke-opacity:1"
           id="path94154" />
        <path
           d="m 60.77274,4.7960481 c -1.183017,0 -2.088764,0.9704436 -2.088764,2.2273991 0,1.3216518 0.868778,2.2736108 2.088764,2.2736108 1.201502,0 2.079522,-0.951959 2.079522,-2.2458838 0,-1.3031671 -0.887263,-2.2551261 -2.079522,-2.2551261 z m 0.0092,0.2865119 c 0.536055,0 0.711659,0.5083276 0.711659,2.0240681 0,1.4233173 -0.184847,1.9039179 -0.720901,1.9039179 -0.545297,0 -0.730143,-0.4713583 -0.730143,-1.8299793 0,-1.617406 0.166361,-2.0980067 0.739385,-2.0980067 z"
           style="font-family:'Nimbus Roman';-inkscape-font-specification:'Nimbus Roman,  Bold';fill:#fa8072;fill-opacity:1;stroke:none;stroke-opacity:1"
           id="path94156" />
        <path
           d="M 66.216449,6.1546691 V 4.8145327 h -0.203331 c -0.05545,0.1386348 -0.110908,0.1848464 -0.231058,0.1848464 -0.05545,0 -0.138635,-0.018485 -0.286512,-0.064696 -0.295754,-0.1016655 -0.508327,-0.1386348 -0.720901,-0.1386348 -0.841051,0 -1.451044,0.5730238 -1.451044,1.3493787 0,0.6099931 0.378935,1.0351399 1.31241,1.4325596 0.63772,0.2772696 0.887262,0.5083276 0.887262,0.8040819 0,0.3604505 -0.277269,0.6007508 -0.693174,0.6007508 -0.646962,0 -1.072109,-0.4159044 -1.266198,-1.2199863 h -0.258785 v 1.5249828 h 0.231058 c 0.101666,-0.203331 0.15712,-0.2587849 0.240301,-0.2587849 0.04621,0 0.12015,0.018485 0.212573,0.055454 0.268027,0.1109078 0.730143,0.2125734 0.998171,0.2125734 0.841051,0 1.423317,-0.5730239 1.423317,-1.4048327 0,-0.6562047 -0.351208,-1.0536245 -1.27544,-1.4418019 -0.628478,-0.2680273 -0.887263,-0.4990853 -0.887263,-0.8133242 0,-0.3049965 0.258785,-0.5360545 0.609993,-0.5360545 0.249543,0 0.489843,0.1016655 0.693174,0.2957542 0.194089,0.1848464 0.295754,0.3512082 0.434389,0.7578702 z"
           style="font-family:'Nimbus Roman';-inkscape-font-specification:'Nimbus Roman,  Bold';fill:#fa8072;fill-opacity:1;stroke:none;stroke-opacity:1"
           id="path94158" />
        <path
           d="m 71.022447,8.576157 -0.09242,0.092423 c -0.02773,0.027727 -0.05545,0.036969 -0.101666,0.036969 -0.129392,0 -0.194089,-0.073939 -0.194089,-0.231058 V 6.0622459 c 0,-0.7855972 -0.702416,-1.2661978 -1.829979,-1.2661978 -1.044382,0 -1.746799,0.4713583 -1.746799,1.1645323 0,0.3881775 0.221816,0.6099931 0.600751,0.6099931 0.369693,0 0.628478,-0.2218156 0.628478,-0.5360545 0,-0.1293925 -0.04621,-0.2495427 -0.166362,-0.3974198 -0.08318,-0.092423 -0.110908,-0.1478771 -0.110908,-0.203331 0,-0.1940887 0.249543,-0.3419659 0.582267,-0.3419659 0.545296,0 0.776354,0.2495427 0.776354,0.8133242 V 6.5798159 C 68.268238,6.9125394 67.815365,7.0881435 67.473399,7.3284438 67.066737,7.6057134 66.88189,7.9199523 66.88189,8.317372 c 0,0.5637816 0.425147,0.979686 1.025898,0.979686 0.526812,0 0.951959,-0.1848464 1.460286,-0.6469624 0.101666,0.4713583 0.304997,0.6469624 0.757871,0.6469624 0.397419,0 0.683931,-0.1478772 1.03514,-0.5268123 z M 69.358829,8.2434335 c -0.249543,0.2865119 -0.434389,0.3974197 -0.656205,0.3974197 -0.277269,0 -0.471358,-0.2495426 -0.471358,-0.6192354 0,-0.5360546 0.388177,-0.924232 1.127563,-1.1183207 z"
           style="font-family:'Nimbus Roman';-inkscape-font-specification:'Nimbus Roman,  Bold';fill:#fa8072;fill-opacity:1;stroke:none;stroke-opacity:1"
           id="path94160" />
        <path
           d="M 76.253583,8.9458498 C 75.911617,8.9273652 75.791467,8.7887304 75.800709,8.4190376 V 6.0992152 c 0,-0.7948395 -0.489842,-1.3031671 -1.247713,-1.3031671 -0.554539,0 -0.979686,0.258785 -1.321651,0.8040818 v -0.693174 h -1.765284 v 0.2218157 c 0.406662,0.064696 0.480601,0.1478771 0.489843,0.5452969 v 2.7172421 c -0.0092,0.3974198 -0.08318,0.4806006 -0.489843,0.5545392 v 0.2218157 h 2.2274 V 8.9458498 C 73.360737,8.9088805 73.240587,8.7610034 73.240587,8.4190376 V 5.9513381 c 0,-0.027727 0.0647,-0.1293925 0.157119,-0.2218157 0.203331,-0.203331 0.425147,-0.3142389 0.63772,-0.3142389 0.323482,0 0.480601,0.2495427 0.480601,0.7671126 v 2.2366415 c -0.0092,0.3512081 -0.129392,0.4990852 -0.434389,0.5268122 v 0.2218157 h 2.171945 z"
           style="font-family:'Nimbus Roman';-inkscape-font-specification:'Nimbus Roman,  Bold';fill:#fa8072;fill-opacity:1;stroke:none;stroke-opacity:1"
           id="path94162" />
        <path
           d="M 81.39231,8.9458498 C 81.050345,8.9273652 80.930194,8.7887304 80.939437,8.4190376 V 6.0992152 c 0,-0.7948395 -0.489843,-1.3031671 -1.247714,-1.3031671 -0.554539,0 -0.979685,0.258785 -1.321651,0.8040818 v -0.693174 h -1.765283 v 0.2218157 c 0.406662,0.064696 0.4806,0.1478771 0.489843,0.5452969 v 2.7172421 c -0.0092,0.3974198 -0.08318,0.4806006 -0.489843,0.5545392 v 0.2218157 h 2.227399 V 8.9458498 C 78.499464,8.9088805 78.379314,8.7610034 78.379314,8.4190376 V 5.9513381 c 0,-0.027727 0.0647,-0.1293925 0.157119,-0.2218157 0.203331,-0.203331 0.425147,-0.3142389 0.637721,-0.3142389 0.323481,0 0.4806,0.2495427 0.4806,0.7671126 v 2.2366415 c -0.0092,0.3512081 -0.129392,0.4990852 -0.434389,0.5268122 v 0.2218157 h 2.171945 z"
           style="font-family:'Nimbus Roman';-inkscape-font-specification:'Nimbus Roman,  Bold';fill:#fa8072;fill-opacity:1;stroke:none;stroke-opacity:1"
           id="path94164" />
        <path
           d="m 85.921044,8.576157 -0.09242,0.092423 c -0.02773,0.027727 -0.05545,0.036969 -0.101665,0.036969 -0.129393,0 -0.194089,-0.073939 -0.194089,-0.231058 V 6.0622459 c 0,-0.7855972 -0.702416,-1.2661978 -1.829979,-1.2661978 -1.044383,0 -1.746799,0.4713583 -1.746799,1.1645323 0,0.3881775 0.221816,0.6099931 0.600751,0.6099931 0.369693,0 0.628478,-0.2218156 0.628478,-0.5360545 0,-0.1293925 -0.04621,-0.2495427 -0.166362,-0.3974198 -0.08318,-0.092423 -0.110908,-0.1478771 -0.110908,-0.203331 0,-0.1940887 0.249543,-0.3419659 0.582266,-0.3419659 0.545297,0 0.776355,0.2495427 0.776355,0.8133242 v 0.6746894 c -1.099836,0.3327235 -1.55271,0.5083276 -1.894675,0.7486279 -0.406663,0.2772696 -0.591509,0.5915085 -0.591509,0.9889282 0,0.5637816 0.425147,0.979686 1.025898,0.979686 0.526812,0 0.951959,-0.1848464 1.460286,-0.6469624 0.101666,0.4713583 0.304997,0.6469624 0.75787,0.6469624 0.39742,0 0.683932,-0.1478772 1.03514,-0.5268123 z M 84.257427,8.2434335 c -0.249543,0.2865119 -0.434389,0.3974197 -0.656205,0.3974197 -0.27727,0 -0.471358,-0.2495426 -0.471358,-0.6192354 0,-0.5360546 0.388177,-0.924232 1.127563,-1.1183207 z"
           style="font-family:'Nimbus Roman';-inkscape-font-specification:'Nimbus Roman,  Bold';fill:#fa8072;fill-opacity:1;stroke:none;stroke-opacity:1"
           id="path94166" />
        <path
           d="m 88.610525,9.1676655 h 2.920573 c 1.996341,0 3.327235,-1.2754402 3.327235,-3.1886004 0,-1.903918 -1.284682,-3.059208 -3.4289,-3.059208 h -2.818908 v 0.231058 c 0.582266,0.046212 0.75787,0.1848464 0.767113,0.6192355 v 4.5564638 c 0,0.406662 -0.249543,0.6099931 -0.767113,0.6099931 z m 2.264368,-5.6100883 c 0,-0.2125734 0.184847,-0.3234812 0.545297,-0.3234812 0.665447,0 1.127563,0.3049966 1.451045,0.9427166 0.249542,0.4806007 0.378935,1.1552901 0.378935,1.9408873 0,0.868778 -0.184847,1.6728599 -0.480601,2.0887643 -0.314239,0.4251467 -0.75787,0.6377201 -1.358621,0.6377201 -0.415904,0 -0.536055,-0.1201502 -0.536055,-0.5360546 z"
           style="font-family:'Nimbus Roman';-inkscape-font-specification:'Nimbus Roman,  Bold';fill:#fa8072;fill-opacity:1;stroke:none;stroke-opacity:1"
           id="path94168" />
        <path
           d="M 97.510863,8.9458498 C 97.196625,8.9088805 97.076474,8.7702457 97.076474,8.4190376 V 4.9069559 h -1.774525 v 0.2218157 c 0.406662,0.073939 0.480601,0.1571195 0.489843,0.5452969 v 2.7172421 c -0.0092,0.3881774 -0.07394,0.462116 -0.489843,0.5545392 v 0.2218157 h 2.208914 z M 96.429512,2.7812223 c -0.39742,0 -0.720901,0.3234812 -0.720901,0.7116587 0,0.4159044 0.304997,0.7209009 0.711659,0.7209009 0.406662,0 0.720901,-0.3049965 0.720901,-0.7116586 0,-0.4066621 -0.314239,-0.720901 -0.711659,-0.720901 z"
           style="font-family:'Nimbus Roman';-inkscape-font-specification:'Nimbus Roman,  Bold';fill:#fa8072;fill-opacity:1;stroke:none;stroke-opacity:1"
           id="path94170" />
        <path
           d="m 106.1062,7.7628328 c -0.5453,0.5730239 -0.84105,0.7948396 -1.29392,0.9704436 -0.26803,0.1109079 -0.57303,0.1663618 -0.83181,0.1663618 -0.61,0 -1.19226,-0.3234812 -1.46029,-0.8040818 -0.26803,-0.489843 -0.39742,-1.1460477 -0.39742,-2.0795221 0,-1.9131602 0.59151,-2.9298154 1.70059,-2.9298154 0.43439,0 0.82256,0.1663617 1.22923,0.5175699 0.39742,0.3512082 0.61923,0.6746894 0.93347,1.3678634 h 0.23106 V 2.8089493 h -0.24954 c -0.13864,0.3327235 -0.22182,0.4251467 -0.41591,0.4251467 -0.0832,0 -0.21257,-0.036969 -0.4159,-0.1293925 -0.52681,-0.2218157 -0.97969,-0.3234812 -1.42332,-0.3234812 -1.84846,0 -3.22557,1.414075 -3.22557,3.3087506 0,1.9131603 1.34938,3.2532967 3.27178,3.2532967 1.06287,0 1.69135,-0.3234812 2.62482,-1.3493788 z"
           style="font-family:'Nimbus Roman';-inkscape-font-specification:'Nimbus Roman,  Bold';fill:#fa8072;fill-opacity:1;stroke:none;stroke-opacity:1"
           id="path94172" />
        <path
           d="m 111.05082,8.576157 -0.0924,0.092423 c -0.0277,0.027727 -0.0554,0.036969 -0.10166,0.036969 -0.1294,0 -0.19409,-0.073939 -0.19409,-0.231058 V 6.0622459 c 0,-0.7855972 -0.70242,-1.2661978 -1.82998,-1.2661978 -1.04438,0 -1.7468,0.4713583 -1.7468,1.1645323 0,0.3881775 0.22181,0.6099931 0.60075,0.6099931 0.36969,0 0.62848,-0.2218156 0.62848,-0.5360545 0,-0.1293925 -0.0462,-0.2495427 -0.16636,-0.3974198 -0.0832,-0.092423 -0.11091,-0.1478771 -0.11091,-0.203331 0,-0.1940887 0.24954,-0.3419659 0.58226,-0.3419659 0.5453,0 0.77636,0.2495427 0.77636,0.8133242 v 0.6746894 c -1.09984,0.3327235 -1.55271,0.5083276 -1.89468,0.7486279 -0.40666,0.2772696 -0.59151,0.5915085 -0.59151,0.9889282 0,0.5637816 0.42515,0.979686 1.0259,0.979686 0.52681,0 0.95196,-0.1848464 1.46029,-0.6469624 0.10166,0.4713583 0.305,0.6469624 0.75787,0.6469624 0.39742,0 0.68393,-0.1478772 1.03514,-0.5268123 z m -1.66361,-0.3327235 c -0.24955,0.2865119 -0.43439,0.3974197 -0.65621,0.3974197 -0.27727,0 -0.47136,-0.2495426 -0.47136,-0.6192354 0,-0.5360546 0.38818,-0.924232 1.12757,-1.1183207 z"
           style="font-family:'Nimbus Roman';-inkscape-font-specification:'Nimbus Roman,  Bold';fill:#fa8072;fill-opacity:1;stroke:none;stroke-opacity:1"
           id="path94174" />
        <path
           d="m 114.02683,8.9458498 c -0.56378,-0.027727 -0.66544,-0.1478771 -0.67468,-0.7301433 V 6.468908 c 0,-0.4806006 0.25878,-0.8780204 0.56378,-0.8780204 0.0739,0 0.15712,0.064696 0.25878,0.2125734 0.17561,0.2495426 0.31424,0.3327235 0.55454,0.3327235 0.34197,0 0.58227,-0.258785 0.58227,-0.6099931 0,-0.4251467 -0.31424,-0.7301433 -0.74863,-0.7301433 -0.46212,0 -0.81332,0.2403003 -1.24771,0.8687781 V 4.9069559 h -1.7468 v 0.2218157 c 0.38817,0.046212 0.48984,0.1571195 0.49908,0.5452969 v 2.7172421 c -0.009,0.3881774 -0.10166,0.489843 -0.49908,0.5545392 v 0.2218157 h 2.45845 z"
           style="font-family:'Nimbus Roman';-inkscape-font-specification:'Nimbus Roman,  Bold';fill:#fa8072;fill-opacity:1;stroke:none;stroke-opacity:1"
           id="path94176" />
        <path
           d="m 117.6313,8.9458498 c -0.29575,0 -0.44363,-0.1848464 -0.45287,-0.5545392 V 2.9198571 h -1.75604 v 0.2218157 c 0.305,0.00924 0.46212,0.1848464 0.47136,0.5360546 v 4.7135832 c -0.009,0.3512082 -0.17561,0.5452969 -0.47136,0.5545392 v 0.2218157 h 2.20891 z"
           style="font-family:'Nimbus Roman';-inkscape-font-specification:'Nimbus Roman,  Bold';fill:#fa8072;fill-opacity:1;stroke:none;stroke-opacity:1"
           id="path94178" />
        <path
           d="m 120.1637,4.7960481 c -1.18302,0 -2.08877,0.9704436 -2.08877,2.2273991 0,1.3216518 0.86878,2.2736108 2.08877,2.2736108 1.2015,0 2.07952,-0.951959 2.07952,-2.2458838 0,-1.3031671 -0.88726,-2.2551261 -2.07952,-2.2551261 z m 0.009,0.2865119 c 0.53606,0 0.71166,0.5083276 0.71166,2.0240681 0,1.4233173 -0.18485,1.9039179 -0.7209,1.9039179 -0.5453,0 -0.73015,-0.4713583 -0.73015,-1.8299793 0,-1.617406 0.16637,-2.0980067 0.73939,-2.0980067 z"
           style="font-family:'Nimbus Roman';-inkscape-font-specification:'Nimbus Roman,  Bold';fill:#fa8072;fill-opacity:1;stroke:none;stroke-opacity:1"
           id="path94180" />
        <path
           d="m 52.214374,16.014058 c 0.776355,0.04621 0.878021,0.138635 0.887263,0.831809 v 4.10359 c -0.0092,0.693174 -0.129393,0.804082 -0.887263,0.831809 v 0.175604 h 3.086935 c 0.711659,0 1.377106,-0.194089 1.719072,-0.508328 0.332723,-0.295754 0.51757,-0.711658 0.51757,-1.15529 0,-0.406662 -0.15712,-0.776355 -0.452874,-1.044382 -0.27727,-0.249543 -0.526812,-0.36045 -1.127563,-0.508328 0.480601,-0.12015 0.674689,-0.212573 0.896505,-0.406662 0.231058,-0.203331 0.369693,-0.536054 0.369693,-0.924232 0,-1.035139 -0.831809,-1.571194 -2.421488,-1.571194 h -2.58785 z m 1.82998,2.929815 c 0.896505,0 1.321651,0.05545 1.654375,0.194089 0.526812,0.212574 0.776355,0.591509 0.776355,1.164533 0,0.499085 -0.194089,0.859535 -0.563782,1.072109 -0.295754,0.166361 -0.674689,0.2403 -1.284682,0.2403 -0.452874,0 -0.582266,-0.08318 -0.582266,-0.378935 z m 0,-0.36045 v -2.125734 c 0.0092,-0.203331 0.04621,-0.258785 0.203331,-0.268027 l 0.406662,-0.0092 c 1.025897,-0.02773 1.626648,0.443631 1.626648,1.266198 0,0.730143 -0.471358,1.11832 -1.358621,1.127563 z"
           style="font-weight:normal;font-family:'Nimbus Roman';-inkscape-font-specification:'Nimbus Roman, ';fill:#fa8072;fill-opacity:1;stroke:none;stroke-opacity:1"
           id="path94182" />
        <path
           d="m 58.369758,21.95687 h 2.190429 v -0.138635 c -0.609993,-0.04621 -0.674689,-0.129392 -0.683931,-0.804082 V 17.73313 l -0.03697,-0.02773 -1.432559,0.508327 v 0.138635 l 0.07394,-0.0092 c 0.110908,-0.01848 0.221816,-0.02773 0.314239,-0.02773 0.221816,0 0.304997,0.147877 0.304997,0.554539 v 2.144218 c -0.01849,0.683932 -0.101666,0.776355 -0.730143,0.804082 z m 1.035139,-6.312505 c -0.249542,0 -0.462116,0.212574 -0.462116,0.471359 0,0.268027 0.203331,0.471358 0.462116,0.471358 0.27727,0 0.480601,-0.203331 0.480601,-0.471358 0,-0.268028 -0.212573,-0.471359 -0.480601,-0.471359 z"
           style="font-weight:normal;font-family:'Nimbus Roman';-inkscape-font-specification:'Nimbus Roman, ';fill:#fa8072;fill-opacity:1;stroke:none;stroke-opacity:1"
           id="path94184" />
        <path
           d="m 63.101825,17.705403 c -1.210744,0 -2.042553,0.887262 -2.042553,2.162703 0,1.256955 0.859536,2.181187 2.024068,2.181187 1.164532,0 2.051795,-0.970444 2.051795,-2.255126 0,-1.219986 -0.850294,-2.088764 -2.03331,-2.088764 z m -0.120151,0.258785 c 0.776355,0 1.321652,0.887262 1.321652,2.15346 0,1.053625 -0.415904,1.67286 -1.109078,1.67286 -0.360451,0 -0.702417,-0.221816 -0.896505,-0.591508 -0.258785,-0.480601 -0.406662,-1.127563 -0.406662,-1.783768 0,-0.878021 0.425146,-1.451044 1.090593,-1.451044 z"
           style="font-weight:normal;font-family:'Nimbus Roman';-inkscape-font-specification:'Nimbus Roman, ';fill:#fa8072;fill-opacity:1;stroke:none;stroke-opacity:1"
           id="path94186" />
        <path
           d="m 65.606476,21.95687 h 2.181187 v -0.138635 c -0.582266,-0.02773 -0.683932,-0.12015 -0.693174,-0.63772 V 15.66285 l -0.03697,-0.01849 c -0.471358,0.147877 -0.813324,0.249543 -1.469529,0.406662 v 0.147877 h 0.05545 c 0.101665,-0.0092 0.212573,-0.01848 0.286512,-0.01848 0.295754,0 0.388177,0.129392 0.388177,0.563781 v 4.408587 c -0.0092,0.499085 -0.138635,0.628478 -0.711658,0.665447 z"
           style="font-weight:normal;font-family:'Nimbus Roman';-inkscape-font-specification:'Nimbus Roman, ';fill:#fa8072;fill-opacity:1;stroke:none;stroke-opacity:1"
           id="path94188" />
        <path
           d="m 70.292331,17.705403 c -1.210744,0 -2.042553,0.887262 -2.042553,2.162703 0,1.256955 0.859536,2.181187 2.024068,2.181187 1.164532,0 2.051795,-0.970444 2.051795,-2.255126 0,-1.219986 -0.850294,-2.088764 -2.03331,-2.088764 z m -0.120151,0.258785 c 0.776355,0 1.321652,0.887262 1.321652,2.15346 0,1.053625 -0.415904,1.67286 -1.109078,1.67286 -0.360451,0 -0.702417,-0.221816 -0.896505,-0.591508 -0.258785,-0.480601 -0.406662,-1.127563 -0.406662,-1.783768 0,-0.878021 0.425146,-1.451044 1.090593,-1.451044 z"
           style="font-weight:normal;font-family:'Nimbus Roman';-inkscape-font-specification:'Nimbus Roman, ';fill:#fa8072;fill-opacity:1;stroke:none;stroke-opacity:1"
           id="path94190" />
        <path
           d="m 76.74344,18.37085 v -0.360451 h -0.711659 c -0.194088,0 -0.323481,-0.02773 -0.508327,-0.09242 l -0.203331,-0.07394 c -0.240301,-0.09242 -0.499086,-0.138634 -0.739386,-0.138634 -0.859536,0 -1.543467,0.656204 -1.543467,1.506498 0,0.582266 0.2403,0.933474 0.859535,1.238471 l -0.2403,0.221815 c -0.194089,0.184847 -0.304997,0.286512 -0.332724,0.323482 -0.194088,0.203331 -0.249542,0.304996 -0.249542,0.462116 0,0.203331 0.101665,0.304996 0.489843,0.489843 -0.665447,0.4806 -0.905748,0.785597 -0.905748,1.127563 0,0.489843 0.711659,0.896505 1.598922,0.896505 0.693174,0 1.414075,-0.240301 1.894675,-0.628478 0.351209,-0.286512 0.508328,-0.582266 0.508328,-0.933474 0,-0.573024 -0.434389,-0.951959 -1.118321,-0.988929 l -1.192259,-0.05545 c -0.499085,-0.01848 -0.720901,-0.101665 -0.720901,-0.249542 0,-0.184847 0.304997,-0.508328 0.554539,-0.582266 0.332724,0.02773 0.508328,0.04621 0.526812,0.04621 0.341966,0 0.711659,-0.138635 0.998171,-0.388177 0.304997,-0.258785 0.443631,-0.582266 0.443631,-1.044382 0,-0.268028 -0.04621,-0.480601 -0.175604,-0.776355 z m -2.985269,3.604504 c 0.314238,0.0647 1.035139,0.120151 1.506498,0.120151 0.831809,0 1.136805,0.12015 1.136805,0.452873 0,0.536055 -0.702416,0.896505 -1.746798,0.896505 -0.822567,0 -1.349379,-0.268027 -1.349379,-0.674689 0,-0.212573 0.08318,-0.351208 0.452874,-0.79484 z m 0.04621,-3.142388 c 0,-0.545297 0.258785,-0.868778 0.683932,-0.868778 0.286512,0 0.526812,0.157119 0.674689,0.434389 0.175604,0.323481 0.27727,0.739385 0.27727,1.109078 0,0.51757 -0.258785,0.841051 -0.683932,0.841051 -0.573024,0 -0.951959,-0.600751 -0.951959,-1.488013 z"
           style="font-weight:normal;font-family:'Nimbus Roman';-inkscape-font-specification:'Nimbus Roman, ';fill:#fa8072;fill-opacity:1;stroke:none;stroke-opacity:1"
           id="path94192" />
        <path
           d="m 79.044759,17.705403 c -1.210744,0 -2.042553,0.887262 -2.042553,2.162703 0,1.256955 0.859536,2.181187 2.024068,2.181187 1.164532,0 2.051795,-0.970444 2.051795,-2.255126 0,-1.219986 -0.850293,-2.088764 -2.03331,-2.088764 z m -0.120151,0.258785 c 0.776355,0 1.321652,0.887262 1.321652,2.15346 0,1.053625 -0.415904,1.67286 -1.109078,1.67286 -0.360451,0 -0.702417,-0.221816 -0.896505,-0.591508 -0.258785,-0.480601 -0.406662,-1.127563 -0.406662,-1.783768 0,-0.878021 0.425146,-1.451044 1.090593,-1.451044 z"
           style="font-weight:normal;font-family:'Nimbus Roman';-inkscape-font-specification:'Nimbus Roman, ';fill:#fa8072;fill-opacity:1;stroke:none;stroke-opacity:1"
           id="path94194" />
        <path
           d="m 90.200204,15.838454 h -2.171945 v 0.175604 c 0.739386,0.04621 0.859536,0.203331 0.887263,1.183017 v 3.114662 l -3.558293,-4.473283 h -1.580437 v 0.175604 c 0.39742,0 0.526812,0.07394 0.896505,0.508328 v 4.075863 c -0.01848,0.979686 -0.138635,1.136805 -0.896505,1.183017 v 0.175604 h 2.171945 v -0.175604 c -0.711659,-0.03697 -0.850293,-0.231058 -0.868778,-1.183017 v -3.62299 l 4.085105,5.083276 h 0.15712 v -4.86146 c 0.02773,-0.961201 0.147877,-1.118321 0.87802,-1.183017 z"
           style="font-weight:normal;font-family:'Nimbus Roman';-inkscape-font-specification:'Nimbus Roman, ';fill:#fa8072;fill-opacity:1;stroke:none;stroke-opacity:1"
           id="path94196" />
        <path
           d="m 94.56255,21.494754 h -0.04621 c -0.452874,-0.01849 -0.51757,-0.09242 -0.526813,-0.526812 V 17.797826 H 92.52924 v 0.157119 c 0.573024,0.02773 0.683932,0.12015 0.683932,0.582266 v 2.171946 c 0,0.258785 -0.04621,0.388177 -0.175605,0.489843 -0.249542,0.203331 -0.536054,0.314238 -0.813324,0.314238 -0.36045,0 -0.656204,-0.314238 -0.656204,-0.702416 V 17.797826 H 90.21866 v 0.129392 c 0.434389,0.01849 0.563781,0.147877 0.573024,0.591509 v 2.329064 c 0,0.730144 0.443631,1.201502 1.11832,1.201502 0.341966,0 0.702417,-0.147877 0.951959,-0.39742 l 0.39742,-0.397419 v 0.767112 l 0.03697,0.01848 c 0.462116,-0.184847 0.79484,-0.286512 1.266198,-0.415905 z"
           style="font-weight:normal;font-family:'Nimbus Roman';-inkscape-font-specification:'Nimbus Roman, ';fill:#fa8072;fill-opacity:1;stroke:none;stroke-opacity:1"
           id="path94198" />
        <path
           d="M 97.113414,17.797826 H 96.17994 v -1.072109 c 0,-0.09242 -0.01848,-0.12015 -0.0647,-0.12015 -0.536054,0.776354 -0.813324,1.090593 -1.081351,1.247713 -0.101666,0.0647 -0.15712,0.12015 -0.15712,0.175604 0,0.02773 0.0092,0.04621 0.03697,0.0647 h 0.489843 v 2.781938 c 0,0.776355 0.277269,1.173775 0.822566,1.173775 0.452874,0 0.804082,-0.221816 1.109079,-0.702416 l -0.120151,-0.101666 c -0.203331,0.240301 -0.351208,0.323481 -0.554539,0.323481 -0.341966,0 -0.4806,-0.249542 -0.4806,-0.831808 V 18.09358 h 0.933474 z"
           style="font-weight:normal;font-family:'Nimbus Roman';-inkscape-font-specification:'Nimbus Roman, ';fill:#fa8072;fill-opacity:1;stroke:none;stroke-opacity:1"
           id="path94200" />
        <path
           d="m 97.473858,21.95687 h 2.218157 V 21.818235 C 99.07278,21.79975 98.924902,21.670358 98.906418,21.125061 v -2.079522 c 0,-0.295754 0.388177,-0.75787 0.646962,-0.75787 0.05545,0 0.138635,0.04621 0.240301,0.138635 0.138634,0.138634 0.249539,0.184846 0.369689,0.184846 0.22182,0 0.36045,-0.157119 0.36045,-0.415904 0,-0.304997 -0.19408,-0.489843 -0.50832,-0.489843 -0.388181,0 -0.646966,0.203331 -1.109082,0.868778 v -0.850294 l -0.04621,-0.01848 c -0.51757,0.203331 -0.850293,0.332723 -1.367863,0.499085 v 0.147877 c 0.129392,-0.02773 0.212573,-0.03697 0.323481,-0.03697 0.231058,0 0.314239,0.147877 0.314239,0.554539 v 2.31058 c -0.01849,0.480601 -0.07394,0.536055 -0.656205,0.63772 z"
           style="font-weight:normal;font-family:'Nimbus Roman';-inkscape-font-specification:'Nimbus Roman, ';fill:#fa8072;fill-opacity:1;stroke:none;stroke-opacity:1"
           id="path94202" />
        <path
           d="m 100.8288,21.95687 h 2.19043 v -0.138635 c -0.61,-0.04621 -0.67469,-0.129392 -0.68394,-0.804082 V 17.73313 l -0.037,-0.02773 -1.43256,0.508327 v 0.138635 l 0.0739,-0.0092 c 0.11091,-0.01848 0.22182,-0.02773 0.31424,-0.02773 0.22182,0 0.305,0.147877 0.305,0.554539 v 2.144218 c -0.0185,0.683932 -0.10167,0.776355 -0.73014,0.804082 z m 1.03514,-6.312505 c -0.24955,0 -0.46212,0.212574 -0.46212,0.471359 0,0.268027 0.20333,0.471358 0.46212,0.471358 0.27727,0 0.4806,-0.203331 0.4806,-0.471358 0,-0.268028 -0.21258,-0.471359 -0.4806,-0.471359 z"
           style="font-weight:normal;font-family:'Nimbus Roman';-inkscape-font-specification:'Nimbus Roman, ';fill:#fa8072;fill-opacity:1;stroke:none;stroke-opacity:1"
           id="path94204" />
        <path
           d="m 107.13205,20.709157 -0.16636,-0.03697 c -0.16636,0.868778 -0.29576,0.979686 -1.18302,1.007413 h -1.27544 l 2.48619,-3.743139 v -0.138635 h -3.20709 l -0.0277,1.090594 h 0.16637 c 0.0739,-0.656205 0.20333,-0.79484 0.77635,-0.813325 h 1.27544 l -2.45846,3.74314 v 0.138635 h 3.48436 z"
           style="font-weight:normal;font-family:'Nimbus Roman';-inkscape-font-specification:'Nimbus Roman, ';fill:#fa8072;fill-opacity:1;stroke:none;stroke-opacity:1"
           id="path94206" />
        <path
           d="m 107.53869,21.95687 h 2.19043 v -0.138635 c -0.61,-0.04621 -0.67469,-0.129392 -0.68394,-0.804082 V 17.73313 l -0.037,-0.02773 -1.43256,0.508327 v 0.138635 l 0.0739,-0.0092 c 0.11091,-0.01848 0.22182,-0.02773 0.31424,-0.02773 0.22182,0 0.305,0.147877 0.305,0.554539 v 2.144218 c -0.0185,0.683932 -0.10167,0.776355 -0.73014,0.804082 z m 1.03514,-6.312505 c -0.24955,0 -0.46212,0.212574 -0.46212,0.471359 0,0.268027 0.20333,0.471358 0.46212,0.471358 0.27726,0 0.4806,-0.203331 0.4806,-0.471358 0,-0.268028 -0.21258,-0.471359 -0.4806,-0.471359 z"
           style="font-weight:normal;font-family:'Nimbus Roman';-inkscape-font-specification:'Nimbus Roman, ';fill:#fa8072;fill-opacity:1;stroke:none;stroke-opacity:1"
           id="path94208" />
        <path
           d="m 112.27075,17.705403 c -1.21074,0 -2.04255,0.887262 -2.04255,2.162703 0,1.256955 0.85953,2.181187 2.02407,2.181187 1.16453,0 2.05179,-0.970444 2.05179,-2.255126 0,-1.219986 -0.85029,-2.088764 -2.03331,-2.088764 z m -0.12015,0.258785 c 0.77636,0 1.32165,0.887262 1.32165,2.15346 0,1.053625 -0.4159,1.67286 -1.10908,1.67286 -0.36045,0 -0.70241,-0.221816 -0.8965,-0.591508 -0.25879,-0.480601 -0.40666,-1.127563 -0.40666,-1.783768 0,-0.878021 0.42514,-1.451044 1.09059,-1.451044 z"
           style="font-weight:normal;font-family:'Nimbus Roman';-inkscape-font-specification:'Nimbus Roman, ';fill:#fa8072;fill-opacity:1;stroke:none;stroke-opacity:1"
           id="path94210" />
        <path
           d="m 114.74768,21.95687 h 1.95937 v -0.138635 c -0.46212,-0.02773 -0.61,-0.147877 -0.61,-0.480601 v -2.597092 c 0.44364,-0.415904 0.64697,-0.526812 0.95196,-0.526812 0.45288,0 0.67469,0.286512 0.67469,0.896505 v 1.931645 c -0.0185,0.600751 -0.12939,0.748628 -0.58226,0.776355 v 0.138635 h 1.9224 v -0.138635 c -0.45287,-0.04621 -0.55454,-0.157119 -0.56378,-0.609993 v -2.116491 c 0,-0.868778 -0.40666,-1.386348 -1.0906,-1.386348 -0.42514,0 -0.71165,0.157119 -1.34013,0.748628 v -0.730144 l -0.0647,-0.01848 c -0.4806,0.175604 -0.79484,0.277269 -1.27544,0.415904 v 0.157119 c 0.0647,-0.02773 0.14788,-0.03697 0.24954,-0.03697 0.25879,0 0.34197,0.138635 0.34197,0.591509 v 2.292095 c -0.009,0.545297 -0.11091,0.665447 -0.57302,0.693174 z"
           style="font-weight:normal;font-family:'Nimbus Roman';-inkscape-font-specification:'Nimbus Roman, ';fill:#fa8072;fill-opacity:1;stroke:none;stroke-opacity:1"
           id="path94212" />
        <path
           d="m 119.35033,21.95687 h 2.19043 v -0.138635 c -0.60999,-0.04621 -0.67468,-0.129392 -0.68393,-0.804082 V 17.73313 l -0.037,-0.02773 -1.43256,0.508327 v 0.138635 l 0.0739,-0.0092 c 0.11091,-0.01848 0.22182,-0.02773 0.31424,-0.02773 0.22182,0 0.305,0.147877 0.305,0.554539 v 2.144218 c -0.0185,0.683932 -0.10167,0.776355 -0.73015,0.804082 z m 1.03514,-6.312505 c -0.24954,0 -0.46211,0.212574 -0.46211,0.471359 0,0.268027 0.20333,0.471358 0.46211,0.471358 0.27727,0 0.48061,-0.203331 0.48061,-0.471358 0,-0.268028 -0.21258,-0.471359 -0.48061,-0.471359 z"
           style="font-weight:normal;font-family:'Nimbus Roman';-inkscape-font-specification:'Nimbus Roman, ';fill:#fa8072;fill-opacity:1;stroke:none;stroke-opacity:1"
           id="path94214" />
        <path
           d="m 124.68315,19.054781 -0.037,-1.266198 h -0.10167 c -0.0462,0.07394 -0.0924,0.101666 -0.14788,0.101666 -0.0555,0 -0.14787,-0.01849 -0.24954,-0.0647 -0.21257,-0.07394 -0.42515,-0.12015 -0.64696,-0.12015 -0.73015,0 -1.25696,0.4806 -1.25696,1.146047 0,0.51757 0.29576,0.887263 1.08135,1.330894 l 0.53606,0.304997 c 0.32348,0.184846 0.4806,0.406662 0.4806,0.693174 0,0.406662 -0.29576,0.665447 -0.76711,0.665447 -0.63772,0 -0.9612,-0.351208 -1.17378,-1.293925 h -0.14788 v 1.441802 h 0.12015 c 0.0647,-0.09242 0.10167,-0.110908 0.21258,-0.110908 0.10166,0 0.21257,0.01849 0.42514,0.07394 0.24955,0.05545 0.48985,0.09242 0.67469,0.09242 0.72091,0 1.30317,-0.536055 1.30317,-1.183017 0,-0.462116 -0.22181,-0.767112 -0.77635,-1.099836 l -0.99817,-0.591509 c -0.25879,-0.157119 -0.39742,-0.378935 -0.39742,-0.628477 0,-0.378935 0.28651,-0.628478 0.71165,-0.628478 0.52682,0 0.80409,0.304997 1.01666,1.136805 z"
           style="font-weight:normal;font-family:'Nimbus Roman';-inkscape-font-specification:'Nimbus Roman, ';fill:#fa8072;fill-opacity:1;stroke:none;stroke-opacity:1"
           id="path94216" />
        <path
           d="m 127.60372,17.797826 h -0.93347 v -1.072109 c 0,-0.09242 -0.0185,-0.12015 -0.0647,-0.12015 -0.53605,0.776354 -0.81332,1.090593 -1.08135,1.247713 -0.10167,0.0647 -0.15712,0.12015 -0.15712,0.175604 0,0.02773 0.009,0.04621 0.037,0.0647 h 0.48984 v 2.781938 c 0,0.776355 0.27727,1.173775 0.82257,1.173775 0.45287,0 0.80408,-0.221816 1.10908,-0.702416 l -0.12015,-0.101666 c -0.20333,0.240301 -0.35121,0.323481 -0.55454,0.323481 -0.34197,0 -0.4806,-0.249542 -0.4806,-0.831808 V 18.09358 h 0.93347 z"
           style="font-weight:normal;font-family:'Nimbus Roman';-inkscape-font-specification:'Nimbus Roman, ';fill:#fa8072;fill-opacity:1;stroke:none;stroke-opacity:1"
           id="path94218" />
        <path
           d="m 131.99381,21.346877 c -0.15712,0.129392 -0.26803,0.175604 -0.40666,0.175604 -0.21258,0 -0.27727,-0.129393 -0.27727,-0.536055 v -1.802252 c 0,-0.480601 -0.0462,-0.748628 -0.18485,-0.970444 -0.20333,-0.332723 -0.60075,-0.508327 -1.14605,-0.508327 -0.86878,0 -1.55271,0.452873 -1.55271,1.035139 0,0.212574 0.17561,0.39742 0.39742,0.39742 0.22182,0 0.41591,-0.184846 0.41591,-0.388177 0,-0.03697 -0.009,-0.08318 -0.0185,-0.147877 -0.0185,-0.08318 -0.0277,-0.15712 -0.0277,-0.221816 0,-0.249543 0.29575,-0.452874 0.66544,-0.452874 0.45288,0 0.70242,0.268028 0.70242,0.767113 v 0.563781 c -1.41408,0.563782 -1.58044,0.646963 -1.97786,0.998171 -0.20333,0.184846 -0.33272,0.499085 -0.33272,0.804082 0,0.582266 0.40666,0.988928 0.97044,0.988928 0.40666,0 0.7856,-0.194089 1.34938,-0.674689 0.0462,0.489843 0.21257,0.674689 0.59151,0.674689 0.31424,0 0.50833,-0.110908 0.83181,-0.462116 z m -1.43256,-0.526813 c 0,0.27727 -0.0462,0.378936 -0.2403,0.489843 -0.23106,0.129393 -0.4806,0.203331 -0.67469,0.203331 -0.32348,0 -0.58227,-0.314238 -0.58227,-0.711658 v -0.03697 c 0.009,-0.55454 0.41591,-0.905748 1.49726,-1.284683 z"
           style="font-weight:normal;font-family:'Nimbus Roman';-inkscape-font-specification:'Nimbus Roman, ';fill:#fa8072;fill-opacity:1;stroke:none;stroke-opacity:1"
           id="path94220" />
      </g>
    </g>
  </g>
</svg>
