<?xml version="1.0" encoding="UTF-8" standalone="no"?>
<!-- Created with Inkscape (http://www.inkscape.org/) -->

<svg
   width="177.40421mm"
   height="24.422726mm"
   viewBox="0 0 177.40421 24.422726"
   version="1.1"
   id="svg72197"
   inkscape:version="1.1.2 (0a00cf5339, 2022-02-04)"
   sodipodi:docname="logo.svg"
   xmlns:inkscape="http://www.inkscape.org/namespaces/inkscape"
   xmlns:sodipodi="http://sodipodi.sourceforge.net/DTD/sodipodi-0.dtd"
   xmlns="http://www.w3.org/2000/svg"
   xmlns:svg="http://www.w3.org/2000/svg">
  <sodipodi:namedview
     id="namedview72199"
     pagecolor="#ffffff"
     bordercolor="#666666"
     borderopacity="1.0"
     inkscape:pageshadow="2"
     inkscape:pageopacity="0.0"
     inkscape:pagecheckerboard="true"
     inkscape:document-units="mm"
     showgrid="false"
     showborder="false"
     inkscape:zoom="0.48284231"
     inkscape:cx="288.9142"
     inkscape:cy="317.90917"
     inkscape:window-width="1364"
     inkscape:window-height="716"
     inkscape:window-x="0"
     inkscape:window-y="21"
     inkscape:window-maximized="1"
     inkscape:current-layer="layer1" />
  <defs
     id="defs72194" />
  <g
     inkscape:label="Livello 1"
     inkscape:groupmode="layer"
     id="layer1"
     transform="translate(32.80911,-64.504503)">
    <g
       id="g72457">
      <path
         id="path32620"
         style="font-weight:bold;font-size:14.1111px;line-height:1.25;font-family:'Nimbus Roman';-inkscape-font-specification:'Nimbus Roman,  Bold';letter-spacing:0px;word-spacing:0px;fill:#a51d3d;fill-opacity:1;stroke:#3e0e19;stroke-width:0.797;stroke-linejoin:round;stroke-miterlimit:4;stroke-dasharray:none;stroke-opacity:1"
         d="m -32.41061,66.598334 v 0.715651 c 1.76637,0.114439 2.11018,0.514796 2.15926,2.632087 v 12.647009 c -0.0491,2.11729 -0.27024,2.403188 -2.15926,2.632087 v 0.715648 h 8.29178 7.2744 1.33695 v -0.08488 c 1.49177,-0.192929 2.81516,-0.712204 3.92474,-1.506742 1.4986,1.01924 3.35709,1.591612 5.45398,1.591612 3.04679,0 4.8485,-0.953651 7.52439,-3.977467 L 0.6008,81.282267 c -1.56316,1.688977 -2.41042,2.342915 -3.70864,2.860507 -0.76833,0.326896 -1.64267,0.490371 -2.38451,0.490371 -1.70977,0 -3.34353,-0.912121 -4.13351,-2.276881 1.14372,-1.646814 1.78287,-3.79143 1.78287,-6.286829 0,-2.524186 -0.63767,-4.622571 -1.82226,-6.197767 0.82113,-1.565849 2.07176,-2.374327 3.72237,-2.374327 1.24524,0 2.35792,0.490426 3.52366,1.525605 1.13924,1.035182 1.77491,1.988834 2.6757,4.031954 H 0.91855 V 66.680058 H 0.20337 c -0.39741,0.980696 -0.63589,1.253174 -1.19224,1.253174 -0.23846,0 -0.60938,-0.108985 -1.19226,-0.3814 -1.51016,-0.653796 -2.80779,-0.953504 -4.07951,-0.953504 -1.9567,0 -3.72912,0.569347 -5.18658,1.567518 -1.48891,-1.019686 -3.40299,-1.567518 -5.67284,-1.567518 h -7.3907 z m 12.34747,0.874917 2.91836,0.0985 c 1.6569,0 2.84716,0.800213 3.70864,2.466535 -1.3069,1.674199 -2.07134,3.856293 -2.07134,6.313026 0,2.537767 0.78426,4.73256 2.14826,6.380084 -0.0438,0.08145 -0.0888,0.159898 -0.13467,0.233663 -0.7037,1.089406 -1.64758,1.727705 -2.87349,1.915386 -0.0516,-0.05775 -0.0996,-0.123969 -0.14566,-0.199073 l -4.9311,-8.154021 c 1.44743,-0.543629 2.06021,-0.887521 2.74713,-1.631433 0.71144,-0.772526 1.10435,-1.916643 1.10435,-3.204188 0,-1.962014 -0.84913,-3.383583 -2.47059,-4.218465 z m -4.88899,0.0985 c 2.25702,0 3.1647,1.229916 3.1647,4.234181 0,1.83117 -0.36874,2.947016 -1.15379,3.547869 -0.63787,0.486405 -1.47144,0.687039 -3.33595,0.715651 v -7.295868 c 0,-0.171679 0.0976,-0.601607 0.17118,-0.77328 0.14725,-0.28612 0.54046,-0.428553 1.15379,-0.428553 z m -1.32504,9.413482 h 0.66206 l 4.59321,8.099534 -3.22331,0.121536 c -1.74521,-0.25496 -1.98406,-0.602376 -2.03196,-2.613224 z" />
      <g
         aria-label="ROSANNA DI CARLO"
         id="text40266"
         style="font-weight:bold;font-size:14.1111px;line-height:1.25;font-family:'Nimbus Roman';-inkscape-font-specification:'Nimbus Roman,  Bold';letter-spacing:0px;word-spacing:0px;fill:#a51d3d;fill-opacity:1;stroke-width:0.264583"
         transform="translate(263.18235,122.14382)">
        <path
           d="m -250.31398,-48.227213 c -0.254,0 -0.43744,-0.07055 -0.57855,-0.268111 l -2.83633,-4.021663 c 0.83255,-0.268111 1.18533,-0.437444 1.58044,-0.804333 0.40922,-0.381 0.635,-0.945444 0.635,-1.580443 0,-1.636888 -1.397,-2.511776 -3.97933,-2.511776 h -4.54377 v 0.352777 c 1.016,0.05644 1.21355,0.254 1.24177,1.298222 v 6.237106 c -0.0282,1.044221 -0.15522,1.185332 -1.24177,1.298221 v 0.352778 h 4.76955 v -0.352778 c -1.07245,-0.127 -1.21356,-0.282222 -1.24178,-1.298221 v -2.765776 h 0.381 l 2.921,4.416775 h 2.89277 z m -6.19477,-8.113883 c 0,-0.08467 0.0565,-0.296333 0.0988,-0.380999 0.0847,-0.141111 0.31044,-0.211667 0.66322,-0.211667 1.29822,0 1.82033,0.606778 1.82033,2.088443 0,0.90311 -0.21166,1.453443 -0.66322,1.749777 -0.36689,0.239888 -0.84666,0.338666 -1.91911,0.352777 z"
           id="path70827"
           style="fill:#a51d3d;fill-opacity:1" />
        <path
           d="m -245.0929,-57.625206 c -2.96333,0 -5.05178,2.074332 -5.05178,5.023552 0,2.920998 2.07434,4.995329 4.99533,4.995329 2.921,0 4.99533,-2.074331 4.99533,-5.00944 0,-2.878665 -2.08844,-5.009441 -4.93888,-5.009441 z m -0.0141,0.465667 c 1.55222,0 2.45533,1.707443 2.45533,4.642552 0,2.906886 -0.86078,4.444996 -2.49767,4.444996 -1.62277,0 -2.49766,-1.53811 -2.49766,-4.402663 0,-3.047998 0.889,-4.684885 2.54,-4.684885 z"
           id="path70829"
           style="fill:#a51d3d;fill-opacity:1" />
        <path
           d="m -232.75982,-54.577208 v -3.062109 h -0.42333 c -0.11289,0.381 -0.19755,0.479778 -0.45155,0.479778 -0.127,0 -0.29634,-0.04233 -0.59267,-0.141111 -0.64911,-0.239889 -1.10067,-0.324556 -1.651,-0.324556 -1.91911,0 -3.09033,1.086555 -3.09033,2.878665 0,1.227665 0.73378,2.116665 2.413,2.920998 l 0.94544,0.451555 c 1.24178,0.592666 1.58045,0.959555 1.58045,1.707443 0,0.973666 -0.69145,1.594554 -1.778,1.594554 -0.83256,0 -1.524,-0.352777 -2.06022,-1.044221 -0.381,-0.522111 -0.57856,-0.987777 -0.81845,-1.975554 h -0.40922 v 3.485441 h 0.40922 c 0.0847,-0.366888 0.19756,-0.479777 0.42334,-0.479777 0.11288,0 0.26811,0.04233 0.57855,0.141111 0.69144,0.239889 1.21355,0.338666 1.83444,0.338666 2.08845,0 3.49956,-1.199443 3.49956,-2.977442 0,-1.058332 -0.635,-2.116665 -1.55222,-2.56822 l -2.07434,-1.03011 c -1.143,-0.564444 -1.45344,-0.917222 -1.45344,-1.594555 0,-0.874888 0.59267,-1.41111 1.55222,-1.41111 0.635,0 1.22767,0.268111 1.73567,0.790222 0.47977,0.493889 0.70555,0.90311 0.98777,1.820332 z"
           id="path70831"
           style="fill:#a51d3d;fill-opacity:1" />
        <path
           d="m -222.37407,-48.227213 c -0.62089,0 -0.77611,-0.197555 -1.53811,-1.961443 l -3.14678,-7.422439 h -0.39511 l -3.13266,7.732883 c -0.53622,1.326444 -0.70556,1.523999 -1.38289,1.650999 v 0.352778 h 2.86455 v -0.352778 c -0.84666,-0.05644 -1.15711,-0.211666 -1.15711,-0.578555 0,-0.183444 0.0988,-0.522111 0.40923,-1.28411 l 0.21166,-0.564444 h 3.175 c 0.47978,1.114777 0.64911,1.608665 0.64911,1.919109 0,0.310445 -0.18344,0.437445 -0.67733,0.465667 -0.0706,0.01411 -0.254,0.02822 -0.45156,0.04233 v 0.352778 h 4.572 z m -7.05555,-2.977442 1.32644,-3.428997 1.42522,3.428997 z"
           id="path70833"
           style="fill:#a51d3d;fill-opacity:1" />
        <path
           d="m -221.68265,-47.874435 h 3.20322 v -0.352778 c -1.07244,-0.112889 -1.32644,-0.381 -1.34056,-1.396999 v -5.672662 l 6.30767,7.676438 h 0.39511 v -8.311438 c 0,-0.804332 0.18344,-1.001888 1.10066,-1.128888 v -0.352777 h -3.03388 v 0.352777 c 1.03011,0.09878 1.31233,0.395111 1.31233,1.396999 v 4.303886 l -4.92478,-6.053662 h -2.97744 v 0.352777 c 0.28222,0 0.52211,0.211667 1.19945,1.016 v 6.688661 c -0.0141,0.832555 -0.23989,1.015999 -1.24178,1.128888 z"
           id="path70835"
           style="fill:#a51d3d;fill-opacity:1" />
        <path
           d="m -211.49446,-47.874435 h 3.20322 v -0.352778 c -1.07244,-0.112889 -1.32644,-0.381 -1.34055,-1.396999 v -5.672662 l 6.30766,7.676438 h 0.39511 v -8.311438 c 0,-0.804332 0.18344,-1.001888 1.10066,-1.128888 v -0.352777 h -3.03388 v 0.352777 c 1.03011,0.09878 1.31233,0.395111 1.31233,1.396999 v 4.303886 l -4.92477,-6.053662 h -2.97745 v 0.352777 c 0.28223,0 0.52211,0.211667 1.19945,1.016 v 6.688661 c -0.0141,0.832555 -0.23989,1.015999 -1.24178,1.128888 z"
           id="path70837"
           style="fill:#a51d3d;fill-opacity:1" />
        <path
           d="m -192.07763,-48.227213 c -0.62089,0 -0.77611,-0.197555 -1.53811,-1.961443 l -3.14677,-7.422439 h -0.39511 l -3.13267,7.732883 c -0.53622,1.326444 -0.70555,1.523999 -1.38288,1.650999 v 0.352778 h 2.86455 v -0.352778 c -0.84667,-0.05644 -1.15711,-0.211666 -1.15711,-0.578555 0,-0.183444 0.0988,-0.522111 0.40922,-1.28411 l 0.21167,-0.564444 h 3.17499 c 0.47978,1.114777 0.64911,1.608665 0.64911,1.919109 0,0.310445 -0.18344,0.437445 -0.67733,0.465667 -0.0705,0.01411 -0.254,0.02822 -0.45155,0.04233 v 0.352778 h 4.57199 z m -7.05555,-2.977442 1.32645,-3.428997 1.42522,3.428997 z"
           id="path70839"
           style="fill:#a51d3d;fill-opacity:1" />
        <path
           d="m -187.88668,-47.874435 h 4.45911 c 3.04799,0 5.07999,-1.947332 5.07999,-4.86833 0,-2.906887 -1.96144,-4.670774 -5.23522,-4.670774 h -4.30388 v 0.352777 c 0.889,0.07056 1.15711,0.282222 1.17122,0.945444 v 6.956772 c 0,0.620889 -0.381,0.931333 -1.17122,0.931333 z m 3.45722,-8.565438 c 0,-0.324556 0.28222,-0.493889 0.83255,-0.493889 1.016,0 1.72156,0.465667 2.21545,1.439332 0.381,0.733778 0.57855,1.763888 0.57855,2.963332 0,1.326443 -0.28222,2.554109 -0.73378,3.189108 -0.47977,0.649111 -1.15711,0.973666 -2.07433,0.973666 -0.635,0 -0.81844,-0.183444 -0.81844,-0.818444 z"
           id="path70841"
           style="fill:#a51d3d;fill-opacity:1" />
        <path
           d="m -172.67494,-48.227213 c -1.04422,-0.05644 -1.32645,-0.254 -1.34056,-1.001888 v -6.829773 c 0.0141,-0.747888 0.32456,-0.973665 1.34056,-1.001888 v -0.352777 h -4.93889 v 0.352777 c 0.98778,0.04233 1.28411,0.268111 1.31233,1.001888 v 6.829773 c -0.0282,0.719666 -0.28222,0.931333 -1.31233,1.001888 v 0.352778 h 4.93889 z"
           id="path70843"
           style="fill:#a51d3d;fill-opacity:1" />
        <path
           d="m -159.60809,-50.019323 c -0.83255,0.874889 -1.28411,1.213555 -1.97555,1.481666 -0.40922,0.169333 -0.87489,0.254 -1.27,0.254 -0.93133,0 -1.82033,-0.493889 -2.22956,-1.227666 -0.40922,-0.747888 -0.60677,-1.749776 -0.60677,-3.174998 0,-2.920997 0.90311,-4.473218 2.59644,-4.473218 0.66322,0 1.25589,0.253999 1.87678,0.790221 0.60677,0.536222 0.94544,1.030111 1.42522,2.088443 h 0.35277 v -3.301997 h -0.381 c -0.21166,0.507999 -0.33866,0.64911 -0.63499,0.64911 -0.127,0 -0.32456,-0.05644 -0.635,-0.197555 -0.80434,-0.338667 -1.49578,-0.493889 -2.17311,-0.493889 -2.82222,0 -4.92478,2.158999 -4.92478,5.051774 0,2.920998 2.06022,4.967107 4.99533,4.967107 1.62278,0 2.58233,-0.493888 4.00755,-2.06022 z"
           id="path70845"
           style="fill:#a51d3d;fill-opacity:1" />
        <path
           d="m -149.37759,-48.227213 c -0.62089,0 -0.77611,-0.197555 -1.53811,-1.961443 l -3.14677,-7.422439 h -0.39511 l -3.13267,7.732883 c -0.53622,1.326444 -0.70555,1.523999 -1.38289,1.650999 v 0.352778 h 2.86456 v -0.352778 c -0.84667,-0.05644 -1.15711,-0.211666 -1.15711,-0.578555 0,-0.183444 0.0988,-0.522111 0.40922,-1.28411 l 0.21167,-0.564444 h 3.17499 c 0.47978,1.114777 0.64911,1.608665 0.64911,1.919109 0,0.310445 -0.18344,0.437445 -0.67733,0.465667 -0.0705,0.01411 -0.254,0.02822 -0.45155,0.04233 v 0.352778 h 4.57199 z m -7.05555,-2.977442 1.32645,-3.428997 1.42522,3.428997 z"
           id="path70847"
           style="fill:#a51d3d;fill-opacity:1" />
        <path
           d="m -138.8225,-48.227213 c -0.254,0 -0.43745,-0.07055 -0.57856,-0.268111 l -2.83633,-4.021663 c 0.83255,-0.268111 1.18533,-0.437444 1.58044,-0.804333 0.40922,-0.381 0.635,-0.945444 0.635,-1.580443 0,-1.636888 -1.397,-2.511776 -3.97933,-2.511776 h -4.54377 v 0.352777 c 1.016,0.05644 1.21355,0.254 1.24177,1.298222 v 6.237106 c -0.0282,1.044221 -0.15522,1.185332 -1.24177,1.298221 v 0.352778 h 4.76955 v -0.352778 c -1.07244,-0.127 -1.21356,-0.282222 -1.24178,-1.298221 v -2.765776 h 0.381 l 2.921,4.416775 h 2.89278 z m -6.19478,-8.113883 c 0,-0.08467 0.0565,-0.296333 0.0988,-0.380999 0.0847,-0.141111 0.31044,-0.211667 0.66322,-0.211667 1.29822,0 1.82033,0.606778 1.82033,2.088443 0,0.90311 -0.21166,1.453443 -0.66322,1.749777 -0.36689,0.239888 -0.84666,0.338666 -1.91911,0.352777 z"
           id="path70849"
           style="fill:#a51d3d;fill-opacity:1" />
        <path
           d="m -129.42454,-51.077655 h -0.40922 c -0.46567,1.100666 -0.74789,1.53811 -1.24178,1.989665 -0.57855,0.522111 -1.36878,0.77611 -2.46944,0.77611 -0.86078,0 -1.11478,-0.183444 -1.11478,-0.790221 v -6.660439 c 0.0282,-1.086555 0.22578,-1.269999 1.42522,-1.298222 v -0.352777 h -4.92477 v 0.352777 c 0.93133,0.04233 1.19944,0.268111 1.21355,1.001888 v 6.829773 c -0.0141,0.733777 -0.21166,0.888999 -1.21355,1.001888 v 0.352778 h 8.15622 z"
           id="path70851"
           style="fill:#a51d3d;fill-opacity:1" />
        <path
           d="m -123.52613,-57.625206 c -2.96333,0 -5.05177,2.074332 -5.05177,5.023552 0,2.920998 2.07433,4.995329 4.99533,4.995329 2.92099,0 4.99532,-2.074331 4.99532,-5.00944 0,-2.878665 -2.08844,-5.009441 -4.93888,-5.009441 z m -0.0141,0.465667 c 1.55222,0 2.45533,1.707443 2.45533,4.642552 0,2.906886 -0.86078,4.444996 -2.49766,4.444996 -1.62278,0 -2.49767,-1.53811 -2.49767,-4.402663 0,-3.047998 0.889,-4.684885 2.54,-4.684885 z"
           id="path70853"
           style="fill:#a51d3d;fill-opacity:1" />
      </g>
      <g
         aria-label="Biologa Nutrizionista"
         id="text41480"
         style="font-weight:bold;font-size:14.1111px;line-height:1.25;font-family:'Nimbus Roman';-inkscape-font-specification:'Nimbus Roman,  Bold';letter-spacing:0px;word-spacing:0px;fill:#a51d3d;fill-opacity:1;stroke-width:0.264583"
         transform="translate(260.14475,114.84602)">
        <g
           id="g71808"
           style="fill:#df4a6d;fill-opacity:1">
          <path
             d="m -256.66289,-28.825678 h 4.54377 c 2.38478,0 3.96522,-1.058332 3.96522,-2.652887 0,-0.64911 -0.26811,-1.213554 -0.762,-1.650998 -0.49389,-0.423333 -0.97367,-0.635 -1.96144,-0.846666 1.63688,-0.479778 2.24366,-1.058333 2.24366,-2.130777 0,-1.453443 -1.29822,-2.257776 -3.66888,-2.257776 h -4.36033 v 0.352778 c 0.94544,0.04233 1.21355,0.254 1.24177,1.001888 v 6.829773 c -0.0282,0.733777 -0.23989,0.917221 -1.24177,1.001888 z m 3.49955,-4.840107 h 0.42333 c 1.45344,0 2.159,0.761999 2.159,2.31422 0,1.368777 -0.57856,2.074332 -1.72155,2.074332 -0.62089,0 -0.86078,-0.239889 -0.86078,-0.860777 z m 0,-3.58422 c 0,-0.507999 0.19755,-0.691444 0.762,-0.691444 0.98778,0 1.43933,0.606778 1.43933,1.933221 0,1.481666 -0.46567,1.876776 -2.20133,1.91911 z"
             id="path70874"
             style="fill:#df4a6d;fill-opacity:1" />
          <path
             d="m -243.87824,-29.164344 c -0.47978,-0.05645 -0.66322,-0.268111 -0.66322,-0.804333 v -5.362218 h -2.70933 v 0.338666 c 0.62088,0.112889 0.73377,0.239889 0.74788,0.832555 v 4.148664 c -0.0141,0.592666 -0.11288,0.705555 -0.74788,0.846666 v 0.338666 h 3.37255 z m -1.651,-9.412104 c -0.60678,0 -1.10067,0.493888 -1.10067,1.086555 0,0.634999 0.46567,1.100665 1.08656,1.100665 0.62089,0 1.10067,-0.465666 1.10067,-1.086554 0,-0.620889 -0.47978,-1.100666 -1.08656,-1.100666 z"
             id="path70876"
             style="fill:#df4a6d;fill-opacity:1" />
          <path
             d="m -240.0118,-35.500228 c -1.80622,0 -3.18911,1.481665 -3.18911,3.400775 0,2.017887 1.32644,3.471331 3.18911,3.471331 1.83444,0 3.175,-1.453444 3.175,-3.428998 0,-1.989665 -1.35467,-3.443108 -3.175,-3.443108 z m 0.0141,0.437444 c 0.81844,0 1.08655,0.77611 1.08655,3.090331 0,2.173109 -0.28222,2.906886 -1.10066,2.906886 -0.83256,0 -1.11478,-0.719666 -1.11478,-2.793997 0,-2.469443 0.254,-3.20322 1.12889,-3.20322 z"
             id="path70878"
             style="fill:#df4a6d;fill-opacity:1" />
          <path
             d="m -232.89983,-29.164344 c -0.45156,0 -0.67734,-0.282222 -0.69145,-0.846666 v -8.353772 h -2.68111 v 0.338667 c 0.46567,0.01411 0.70556,0.282222 0.71967,0.818444 v 7.196661 c -0.0141,0.536222 -0.26811,0.832555 -0.71967,0.846666 v 0.338666 h 3.37256 z"
             id="path70880"
             style="fill:#df4a6d;fill-opacity:1" />
          <path
             d="m -229.03339,-35.500228 c -1.80622,0 -3.18911,1.481665 -3.18911,3.400775 0,2.017887 1.32644,3.471331 3.18911,3.471331 1.83444,0 3.17499,-1.453444 3.17499,-3.428998 0,-1.989665 -1.35466,-3.443108 -3.17499,-3.443108 z m 0.0141,0.437444 c 0.81844,0 1.08655,0.77611 1.08655,3.090331 0,2.173109 -0.28222,2.906886 -1.10066,2.906886 -0.83256,0 -1.11478,-0.719666 -1.11478,-2.793997 0,-2.469443 0.254,-3.20322 1.12889,-3.20322 z"
             id="path70882"
             style="fill:#df4a6d;fill-opacity:1" />
          <path
             d="m -218.80288,-34.441896 v -0.747888 h -1.83444 c -0.62089,-0.225778 -1.016,-0.310444 -1.58045,-0.310444 -1.67922,0 -2.86455,0.931332 -2.86455,2.271887 0,0.493888 0.16933,0.945444 0.508,1.340554 0.31044,0.352778 0.57855,0.536222 1.24178,0.804333 -1.11478,0.381 -1.67922,0.931333 -1.67922,1.650999 0,0.578555 0.25399,0.832555 1.15711,1.15711 -0.889,0.112889 -1.35467,0.479777 -1.35467,1.058333 0,0.818443 1.05833,1.298221 2.83633,1.298221 2.35655,0 3.58422,-0.733777 3.58422,-2.130776 0,-1.086555 -0.81844,-1.693332 -2.31422,-1.721555 l -0.91722,-0.01411 c -1.19945,-0.01411 -1.41111,-0.08467 -1.41111,-0.479777 0,-0.437444 0.39511,-0.733777 0.95955,-0.733777 1.29822,0 1.35467,0 1.82034,-0.211667 0.84666,-0.366888 1.26999,-0.973666 1.26999,-1.848554 0,-0.564444 -0.16933,-0.987777 -0.56444,-1.382888 z m -2.22955,6.349995 c 0.76199,0 1.12888,0.225778 1.12888,0.705555 0,0.649111 -0.77611,1.016 -2.17311,1.016 -1.24177,0 -1.89088,-0.324556 -1.89088,-0.945444 0,-0.296333 0.0988,-0.451555 0.49388,-0.776111 z m -1.18534,-6.970883 c 0.66322,0 0.93134,0.536222 0.93134,1.848554 0,1.312332 -0.254,1.820332 -0.93134,1.820332 -0.67733,0 -0.93133,-0.493889 -0.93133,-1.820332 0,-1.326443 0.254,-1.848554 0.93133,-1.848554 z"
             id="path70884"
             style="fill:#df4a6d;fill-opacity:1" />
          <path
             d="m -212.10015,-29.728788 -0.14111,0.141111 c -0.0423,0.04233 -0.0847,0.05644 -0.15522,0.05644 -0.19755,0 -0.29633,-0.112889 -0.29633,-0.352777 v -3.682998 c 0,-1.199443 -1.07245,-1.93322 -2.794,-1.93322 -1.59455,0 -2.667,0.719666 -2.667,1.777998 0,0.592667 0.33867,0.931333 0.91722,0.931333 0.56445,0 0.95956,-0.338666 0.95956,-0.818444 0,-0.197555 -0.0706,-0.381 -0.254,-0.606777 -0.127,-0.141111 -0.16933,-0.225778 -0.16933,-0.310444 0,-0.296333 0.381,-0.522111 0.88899,-0.522111 0.83256,0 1.18534,0.381 1.18534,1.241777 v 1.03011 c -1.67922,0.508 -2.37067,0.776111 -2.89278,1.142999 -0.62089,0.423333 -0.90311,0.903111 -0.90311,1.509888 0,0.860777 0.64911,1.495777 1.56633,1.495777 0.80434,0 1.45345,-0.282222 2.22956,-0.987777 0.15522,0.719666 0.46566,0.987777 1.15711,0.987777 0.60677,0 1.04422,-0.225778 1.58044,-0.804333 z m -2.53999,-0.508 c -0.381,0.437444 -0.66323,0.606777 -1.00189,0.606777 -0.42334,0 -0.71967,-0.380999 -0.71967,-0.945443 0,-0.818444 0.59267,-1.41111 1.72156,-1.707443 z"
             id="path70886"
             style="fill:#df4a6d;fill-opacity:1" />
          <path
             d="m -207.96565,-28.825678 h 3.20322 v -0.352777 c -1.07244,-0.112889 -1.32644,-0.381 -1.34055,-1.396999 v -5.672663 l 6.30766,7.676439 h 0.39511 v -8.311438 c 0,-0.804333 0.18344,-1.001888 1.10067,-1.128888 v -0.352778 h -3.03389 v 0.352778 c 1.03011,0.09878 1.31233,0.395111 1.31233,1.396999 v 4.303885 l -4.92477,-6.053662 h -2.97744 v 0.352778 c 0.28222,0 0.52211,0.211666 1.19944,1.015999 v 6.688662 c -0.0141,0.832555 -0.23989,1.015999 -1.24178,1.128888 z"
             id="path70888"
             style="fill:#df4a6d;fill-opacity:1" />
          <path
             d="m -190.65136,-29.432455 c -0.60678,-0.02822 -0.77611,-0.211667 -0.79022,-0.818444 v -5.079996 h -2.83633 v 0.338666 c 0.69144,0.04233 0.86077,0.211667 0.87488,0.832555 v 3.993442 c -0.46566,0.465666 -0.74789,0.620888 -1.15711,0.620888 -0.57855,0 -0.79022,-0.282222 -0.79022,-1.001888 v -4.783663 h -2.65289 v 0.338666 c 0.57856,0.112889 0.67734,0.239889 0.69145,0.832555 v 3.555998 c 0,1.241776 0.70555,1.975554 1.87677,1.975554 0.73378,0 1.22767,-0.225778 2.04611,-0.931333 v 0.917221 c 0.60678,-0.211666 0.94545,-0.26811 1.86267,-0.366888 l 0.87489,-0.09878 z"
             id="path70890"
             style="fill:#df4a6d;fill-opacity:1" />
          <path
             d="m -186.07937,-35.330895 h -1.32644 v -2.384776 h -0.35278 c -0.86078,1.213555 -1.42522,1.848554 -2.34244,2.624665 v 0.380999 h 0.73377 v 4.571997 c 0,0.917221 0.60678,1.481665 1.58045,1.481665 0.94544,0 1.50989,-0.423333 2.08844,-1.580443 l -0.35278,-0.155222 c -0.28222,0.536222 -0.508,0.733777 -0.80433,0.733777 -0.39511,0 -0.55033,-0.239888 -0.55033,-0.804332 v -4.247442 h 1.32644 z"
             id="path70892"
             style="fill:#df4a6d;fill-opacity:1" />
          <path
             d="m -181.57798,-29.164344 c -0.86078,-0.04233 -1.016,-0.225778 -1.03011,-1.114777 v -2.666998 c 0,-0.733777 0.39511,-1.340555 0.86078,-1.340555 0.11289,0 0.23989,0.09878 0.39511,0.324556 0.26811,0.380999 0.47978,0.507999 0.84666,0.507999 0.52212,0 0.889,-0.395111 0.889,-0.931332 0,-0.649111 -0.47977,-1.114777 -1.14299,-1.114777 -0.70556,0 -1.24178,0.366888 -1.905,1.326443 v -1.15711 h -2.667 v 0.338666 c 0.59266,0.07056 0.74789,0.239889 0.762,0.832555 v 4.148664 c -0.0141,0.592666 -0.15522,0.747888 -0.762,0.846666 v 0.338666 h 3.75355 z"
             id="path70894"
             style="fill:#df4a6d;fill-opacity:1" />
          <path
             d="m -175.77833,-29.164344 c -0.47978,-0.05645 -0.66322,-0.268111 -0.66322,-0.804333 v -5.362218 h -2.70934 v 0.338666 c 0.62089,0.112889 0.73378,0.239889 0.74789,0.832555 v 4.148664 c -0.0141,0.592666 -0.11289,0.705555 -0.74789,0.846666 v 0.338666 h 3.37256 z m -1.651,-9.412104 c -0.60678,0 -1.10067,0.493888 -1.10067,1.086555 0,0.634999 0.46567,1.100665 1.08656,1.100665 0.62089,0 1.10066,-0.465666 1.10066,-1.086554 0,-0.620889 -0.47977,-1.100666 -1.08655,-1.100666 z"
             id="path70896"
             style="fill:#df4a6d;fill-opacity:1" />
          <path
             d="m -169.51302,-31.083454 h -0.39511 c -0.11289,0.423333 -0.23989,0.677333 -0.46567,1.001888 -0.49389,0.649111 -0.83255,0.790222 -2.04611,0.804333 h -0.40922 l 3.25967,-5.686773 v -0.366889 h -5.23522 l -0.0988,2.003776 h 0.36689 c 0.35278,-1.340554 0.71966,-1.566332 2.69522,-1.552221 l -3.302,5.700885 v 0.352777 h 5.40455 z"
             id="path70898"
             style="fill:#df4a6d;fill-opacity:1" />
          <path
             d="m -165.56194,-29.164344 c -0.47978,-0.05645 -0.66322,-0.268111 -0.66322,-0.804333 v -5.362218 h -2.70933 v 0.338666 c 0.62089,0.112889 0.73377,0.239889 0.74789,0.832555 v 4.148664 c -0.0141,0.592666 -0.11289,0.705555 -0.74789,0.846666 v 0.338666 h 3.37255 z m -1.651,-9.412104 c -0.60678,0 -1.10066,0.493888 -1.10066,1.086555 0,0.634999 0.46566,1.100665 1.08655,1.100665 0.62089,0 1.10067,-0.465666 1.10067,-1.086554 0,-0.620889 -0.47978,-1.100666 -1.08656,-1.100666 z"
             id="path70900"
             style="fill:#df4a6d;fill-opacity:1" />
          <path
             d="m -161.6955,-35.500228 c -1.80622,0 -3.18911,1.481665 -3.18911,3.400775 0,2.017887 1.32644,3.471331 3.18911,3.471331 1.83444,0 3.175,-1.453444 3.175,-3.428998 0,-1.989665 -1.35467,-3.443108 -3.175,-3.443108 z m 0.0141,0.437444 c 0.81844,0 1.08655,0.77611 1.08655,3.090331 0,2.173109 -0.28222,2.906886 -1.10066,2.906886 -0.83256,0 -1.11478,-0.719666 -1.11478,-2.793997 0,-2.469443 0.254,-3.20322 1.12889,-3.20322 z"
             id="path70902"
             style="fill:#df4a6d;fill-opacity:1" />
          <path
             d="m -150.57598,-29.164344 c -0.52211,-0.02822 -0.70555,-0.239889 -0.69144,-0.804333 v -3.541886 c 0,-1.213555 -0.74789,-1.989665 -1.905,-1.989665 -0.84667,0 -1.49578,0.395111 -2.01789,1.227665 v -1.058332 h -2.69522 v 0.338666 c 0.62089,0.09878 0.73378,0.225778 0.74789,0.832555 v 4.148664 c -0.0141,0.606777 -0.127,0.733777 -0.74789,0.846666 v 0.338666 h 3.40078 v -0.338666 c -0.508,-0.05645 -0.69145,-0.282222 -0.69145,-0.804333 v -3.767664 c 0,-0.04233 0.0988,-0.197555 0.23989,-0.338666 0.31045,-0.310444 0.64911,-0.479778 0.97367,-0.479778 0.49389,0 0.73377,0.381 0.73377,1.171222 v 3.414886 c -0.0141,0.536222 -0.19755,0.761999 -0.66322,0.804333 v 0.338666 h 3.31611 z"
             id="path70904"
             style="fill:#df4a6d;fill-opacity:1" />
          <path
             d="m -146.73777,-29.164344 c -0.47977,-0.05645 -0.66322,-0.268111 -0.66322,-0.804333 v -5.362218 h -2.70933 v 0.338666 c 0.62089,0.112889 0.73378,0.239889 0.74789,0.832555 v 4.148664 c -0.0141,0.592666 -0.11289,0.705555 -0.74789,0.846666 v 0.338666 h 3.37255 z m -1.651,-9.412104 c -0.60677,0 -1.10066,0.493888 -1.10066,1.086555 0,0.634999 0.46566,1.100665 1.08655,1.100665 0.62089,0 1.10067,-0.465666 1.10067,-1.086554 0,-0.620889 -0.47978,-1.100666 -1.08656,-1.100666 z"
             id="path70906"
             style="fill:#df4a6d;fill-opacity:1" />
          <path
             d="m -141.61543,-33.425897 v -2.046109 h -0.31045 c -0.0847,0.211666 -0.16933,0.282222 -0.35278,0.282222 -0.0847,0 -0.21166,-0.02822 -0.43744,-0.09878 -0.45155,-0.155222 -0.77611,-0.211666 -1.10067,-0.211666 -1.28411,0 -2.21544,0.874888 -2.21544,2.06022 0,0.931333 0.57856,1.580444 2.00378,2.187221 0.97366,0.423333 1.35466,0.77611 1.35466,1.227666 0,0.550333 -0.42333,0.917221 -1.05833,0.917221 -0.98778,0 -1.63689,-0.634999 -1.93322,-1.862665 h -0.39511 v 2.328331 h 0.35278 c 0.15522,-0.310444 0.23989,-0.39511 0.36689,-0.39511 0.0705,0 0.18344,0.02822 0.32455,0.08467 0.40922,0.169333 1.11478,0.324556 1.524,0.324556 1.28411,0 2.17311,-0.874889 2.17311,-2.144888 0,-1.001888 -0.53622,-1.608665 -1.94733,-2.201331 -0.95956,-0.409222 -1.35467,-0.762 -1.35467,-1.241777 0,-0.465666 0.39511,-0.818444 0.93133,-0.818444 0.381,0 0.74789,0.155222 1.05834,0.451555 0.29633,0.282222 0.45155,0.536222 0.66322,1.15711 z"
             id="path70908"
             style="fill:#df4a6d;fill-opacity:1" />
          <path
             d="m -136.71891,-35.330895 h -1.32644 v -2.384776 h -0.35278 c -0.86078,1.213555 -1.42522,1.848554 -2.34244,2.624665 v 0.380999 h 0.73377 v 4.571997 c 0,0.917221 0.60678,1.481665 1.58045,1.481665 0.94544,0 1.50988,-0.423333 2.08844,-1.580443 l -0.35278,-0.155222 c -0.28222,0.536222 -0.508,0.733777 -0.80433,0.733777 -0.39511,0 -0.55033,-0.239888 -0.55033,-0.804332 v -4.247442 h 1.32644 z"
             id="path70910"
             style="fill:#df4a6d;fill-opacity:1" />
          <path
             d="m -129.50819,-29.728788 -0.14111,0.141111 c -0.0423,0.04233 -0.0847,0.05644 -0.15522,0.05644 -0.19756,0 -0.29634,-0.112889 -0.29634,-0.352777 v -3.682998 c 0,-1.199443 -1.07244,-1.93322 -2.79399,-1.93322 -1.59456,0 -2.667,0.719666 -2.667,1.777998 0,0.592667 0.33867,0.931333 0.91722,0.931333 0.56444,0 0.95956,-0.338666 0.95956,-0.818444 0,-0.197555 -0.0706,-0.381 -0.254,-0.606777 -0.127,-0.141111 -0.16934,-0.225778 -0.16934,-0.310444 0,-0.296333 0.381,-0.522111 0.889,-0.522111 0.83256,0 1.18533,0.381 1.18533,1.241777 v 1.03011 c -1.67922,0.508 -2.37066,0.776111 -2.89277,1.142999 -0.62089,0.423333 -0.90311,0.903111 -0.90311,1.509888 0,0.860777 0.64911,1.495777 1.56633,1.495777 0.80433,0 1.45344,-0.282222 2.22955,-0.987777 0.15523,0.719666 0.46567,0.987777 1.15711,0.987777 0.60678,0 1.04423,-0.225778 1.58045,-0.804333 z m -2.54,-0.508 c -0.381,0.437444 -0.66322,0.606777 -1.00189,0.606777 -0.42333,0 -0.71966,-0.380999 -0.71966,-0.945443 0,-0.818444 0.59267,-1.41111 1.72155,-1.707443 z"
             id="path70912"
             style="fill:#df4a6d;fill-opacity:1" />
        </g>
      </g>
    </g>
  </g>
</svg>
